HIERARCHY
ROOT Pelvis
{
	OFFSET 0.000000 0.941512 0.000000
	CHANNELS 6 Xposition Yposition Zposition Zrotation Yrotation Xrotation 
	JOINT Pelvis_L_Hip
	{
		OFFSET 0.000000 0.000000 0.000000
		CHANNELS 3 Zrotation Yrotation Xrotation
		JOINT L_Hip
		{
			OFFSET 0.062321 -0.080322 -0.016990
			CHANNELS 3 Zrotation Yrotation Xrotation
			JOINT L_Knee
			{
				OFFSET 0.093051 -0.381305 -0.029784
				CHANNELS 3 Zrotation Yrotation Xrotation
				JOINT L_Ankle
				{
					OFFSET -0.010371 -0.431000 -0.033614
					CHANNELS 3 Zrotation Yrotation Xrotation
					End Site #name: L_Foot
					{
						OFFSET 0.069299 -0.038670 0.119418
					}
				}
			}
		}
	}
	JOINT Pelvis_R_Hip
	{
		OFFSET 0.000000 0.000000 0.000000
		CHANNELS 3 Zrotation Yrotation Xrotation
		JOINT R_Hip
		{
			OFFSET -0.055334 -0.094904 -0.002373
			CHANNELS 3 Zrotation Yrotation Xrotation
			JOINT R_Knee
			{
				OFFSET -0.064207 -0.384370 -0.019592
				CHANNELS 3 Zrotation Yrotation Xrotation
				JOINT R_Ankle
				{
					OFFSET 0.025418 -0.419734 -0.065953
					CHANNELS 3 Zrotation Yrotation Xrotation
					End Site #name: R_Foot
					{
						OFFSET -0.057233 -0.039888 0.132134
					}
				}
			}
		}
	}
	JOINT Pelvis_Spine1
	{
		OFFSET 0.000000 0.000000 0.000000
		CHANNELS 3 Zrotation Yrotation Xrotation
		JOINT Spine1
		{
			OFFSET -0.005562 0.124093 -0.043360
			CHANNELS 3 Zrotation Yrotation Xrotation
			JOINT Spine2
			{
				OFFSET 0.012244 0.139499 0.029894
				CHANNELS 3 Zrotation Yrotation Xrotation
				JOINT Spine3
				{
					OFFSET -0.002556 0.056561 0.009225
					CHANNELS 3 Zrotation Yrotation Xrotation
					JOINT Spine3_Neck
					{
						OFFSET 0.000000 0.000000 0.000000
						CHANNELS 3 Zrotation Yrotation Xrotation
						JOINT Neck
						{
							OFFSET -0.005205 0.217920 -0.024551
							CHANNELS 3 Zrotation Yrotation Xrotation
							End Site #name: Head
							{
								OFFSET 0.002365 0.091850 0.046637
							}
						}
					}
					JOINT Spine3_L_Collar
					{
						OFFSET 0.000000 0.000000 0.000000
						CHANNELS 3 Zrotation Yrotation Xrotation
						JOINT L_Collar
						{
							OFFSET 0.072225 0.116603 -0.009480
							CHANNELS 3 Zrotation Yrotation Xrotation
							JOINT L_Shoulder
							{
								OFFSET 0.115937 -0.058643 -0.021018
								CHANNELS 3 Zrotation Yrotation Xrotation
								JOINT L_Elbow
								{
									OFFSET 0.021994 -0.254722 -0.024492
									CHANNELS 3 Zrotation Yrotation Xrotation
									End Site #name: L_Wrist
									{
										OFFSET 0.048810 -0.240214 0.103329
									}
								}
							}
						}
					}
					JOINT Spine3_R_Collar
					{
						OFFSET 0.000000 0.000000 0.000000
						CHANNELS 3 Zrotation Yrotation Xrotation
						JOINT R_Collar
						{
							OFFSET -0.073372 0.120704 -0.024611
							CHANNELS 3 Zrotation Yrotation Xrotation
							JOINT R_Shoulder
							{
								OFFSET -0.108089 -0.054969 -0.020504
								CHANNELS 3 Zrotation Yrotation Xrotation
								JOINT R_Elbow
								{
									OFFSET -0.033684 -0.260739 0.009889
									CHANNELS 3 Zrotation Yrotation Xrotation
									End Site #name: R_Wrist
									{
										OFFSET -0.067980 -0.232763 0.118463
									}
								}
							}
						}
					}
				}
			}
		}
	}
}
MOTION
Frames: 17
Frame Time: 0.041667
0.000000 0.957788 0.000000 -0.219670 1.593616 0.428898 0.000000 0.000000 0.000000 -3.307573 0.371401 0.381858 0.048518 -0.024016 0.826473 0.928309 -3.166174 -3.204888 0.000000 0.000000 0.000000 0.655667 0.005172 -0.219115 -1.798109 0.348973 0.835104 2.834361 15.837921 -3.151193 0.000000 0.000000 0.000000 -0.823502 0.355948 -2.191308 1.951206 -0.349493 -1.028840 -0.928536 -0.671218 2.669185 0.000000 0.000000 0.000000 1.840190 -0.838729 -2.217373 0.000000 0.000000 0.000000 0.798251 -0.522472 -0.119278 -2.689066 0.015210 -2.259757 4.631468 2.347987 2.439845 0.000000 0.000000 0.000000 2.058765 -3.496458 1.303671 -0.637204 0.091490 -0.922504 -4.756984 -2.576376 0.767210 
0.000911 0.957868 -0.001139 -0.367745 1.510843 0.539914 0.000000 0.000000 0.000000 -3.257152 0.240609 -0.083657 0.098674 -0.040961 1.332851 1.061008 -2.987737 -3.341232 0.000000 0.000000 0.000000 0.688760 0.037131 -0.412758 -1.750018 0.334271 0.747314 2.927571 16.012450 -3.057431 0.000000 0.000000 0.000000 -0.492993 0.240776 -1.584768 1.659404 -0.326107 -1.742031 -0.749759 -0.479225 3.231282 0.000000 0.000000 0.000000 1.458983 -0.606507 -3.317356 0.000000 0.000000 0.000000 0.850973 -0.218937 0.047583 -2.719363 -0.063131 -3.012579 4.673560 2.363270 2.422991 0.000000 0.000000 0.000000 1.836007 -3.261650 1.239079 -0.485632 0.136528 -1.233125 -4.680509 -2.492871 0.568999 
0.002897 0.958233 -0.004027 -0.552743 1.380669 1.011386 0.000000 0.000000 0.000000 -3.364055 -0.144374 -1.529969 0.247406 -0.091753 2.741476 1.441844 -2.427820 -3.709973 0.000000 0.000000 0.000000 0.575731 0.167139 -1.135358 -1.561942 0.293591 0.619486 3.051881 16.268743 -2.944371 0.000000 0.000000 0.000000 -0.309455 0.124936 -0.667199 1.499367 -0.320700 -2.318601 -0.586676 -0.127764 3.392636 0.000000 0.000000 0.000000 0.865624 -0.294781 -4.032821 0.000000 0.000000 0.000000 0.860836 0.103305 0.216412 -2.613756 -0.141493 -3.653840 4.799996 2.314942 1.764271 0.000000 0.000000 0.000000 1.673472 -2.688795 0.998151 -0.496152 0.166995 -1.482605 -4.367415 -2.225634 0.094886 
0.005929 0.959300 -0.009460 -0.527055 1.334933 1.943660 0.000000 0.000000 0.000000 -3.644339 -0.806578 -4.018224 -0.143188 -0.103797 4.912058 2.423853 -1.273185 -4.815645 0.000000 0.000000 0.000000 -0.039412 0.383230 -2.271659 -0.912686 0.150455 0.082880 3.214221 16.235043 -2.627211 0.000000 0.000000 0.000000 -0.870611 0.236924 -0.582283 1.898082 -0.373979 -2.186347 -0.506233 0.241208 4.890403 0.000000 0.000000 0.000000 -0.275842 0.346566 -8.284346 0.000000 0.000000 0.000000 -0.815875 0.833755 0.256822 0.061404 -0.487026 -5.663129 3.896260 1.745746 0.496695 0.000000 0.000000 0.000000 3.348090 -2.741543 0.668017 -3.239856 0.255252 -3.587307 -2.544947 -1.149102 -0.540026 
0.008888 0.959962 -0.016287 -1.212838 1.277380 2.624928 0.000000 0.000000 0.000000 -3.253473 -1.744543 -7.423422 -0.135387 -0.209523 9.207275 3.503437 0.032481 -6.047289 0.000000 0.000000 0.000000 0.469383 0.599141 -3.621218 -1.070109 0.188069 0.263302 3.262389 16.233734 -2.537221 0.000000 0.000000 0.000000 -0.965039 0.077544 1.621977 1.854429 -0.398906 -3.260715 -0.110401 0.763968 5.266921 0.000000 0.000000 0.000000 -1.032369 0.699065 -9.512283 0.000000 0.000000 0.000000 -0.978415 1.099794 0.353185 0.732972 -0.578563 -6.408848 3.790113 1.460877 -0.983312 0.000000 0.000000 0.000000 3.333778 -1.772425 0.223598 -3.523361 0.328293 -4.503393 -1.864750 -0.674473 -1.014849 
0.011425 0.959781 -0.025829 -2.382905 1.269358 3.318890 0.000000 0.000000 0.000000 -2.174031 -2.883375 -11.747497 -0.446613 -0.291988 14.988831 4.857031 1.854188 -7.549923 0.000000 0.000000 0.000000 1.645697 0.976632 -5.833000 -1.453366 0.359021 1.762615 2.875562 15.729785 -3.020215 0.000000 0.000000 0.000000 -1.413211 -0.092408 5.058233 1.980052 -0.458011 -4.751990 0.567129 1.333026 5.602193 0.000000 0.000000 0.000000 -1.694337 0.999423 -11.009065 0.000000 0.000000 0.000000 -0.980520 1.158882 0.379291 1.290114 -0.652888 -7.100646 3.454896 0.992869 -2.897162 0.000000 0.000000 0.000000 3.193850 -0.604053 -0.290778 -3.675898 0.422562 -5.589790 -1.184444 -0.062039 -1.952457 
0.013533 0.956068 -0.038905 -4.101443 1.300793 3.951635 0.000000 0.000000 0.000000 -0.425845 -4.111734 -16.962470 -0.923504 -0.336536 22.172792 6.402386 4.228638 -9.189330 0.000000 0.000000 0.000000 3.318696 1.716944 -9.616576 -1.632520 0.704413 5.989436 1.821482 14.431385 -4.406427 0.000000 0.000000 0.000000 -2.274544 -0.257812 10.267288 2.234990 -0.545222 -6.900441 1.639426 1.959316 6.002782 0.000000 0.000000 0.000000 -2.287034 1.255604 -13.082647 0.000000 0.000000 0.000000 -0.410004 0.799676 0.317496 0.975392 -0.683841 -7.647018 3.252933 0.399293 -5.776242 0.000000 0.000000 0.000000 2.478404 1.044763 -0.942141 -3.601734 0.538032 -6.734197 -0.518229 0.819989 -3.787479 
0.015884 0.944136 -0.054607 -6.396070 1.420552 4.554207 0.000000 0.000000 0.000000 1.893415 -5.368085 -23.310135 -1.407349 -0.367427 31.096596 8.140560 6.996642 -11.080416 0.000000 0.000000 0.000000 5.041939 2.957636 -15.206752 -0.909597 1.046877 13.380110 0.246131 12.247920 -6.473643 0.000000 0.000000 0.000000 -3.252606 -0.410835 16.645803 2.585093 -0.633750 -9.153692 3.002407 2.587083 6.510834 0.000000 0.000000 0.000000 -2.954955 1.510958 -15.624557 0.000000 0.000000 0.000000 0.466632 -0.174833 0.003939 -0.558265 -0.660548 -7.900791 4.549388 0.347438 -9.932541 0.000000 0.000000 0.000000 1.046261 3.569341 -1.957420 -3.980242 0.620773 -7.996485 0.125415 1.919311 -6.262120 
0.019839 0.920723 -0.069156 -9.222370 1.650051 4.777372 0.000000 0.000000 0.000000 4.616839 -6.496980 -30.567458 -1.943603 -0.384379 42.374736 9.939891 9.666184 -13.267991 0.000000 0.000000 0.000000 6.595877 4.509530 -21.484590 0.814825 1.025886 22.845604 -1.527716 9.499690 -8.847520 0.000000 0.000000 0.000000 -3.863254 -0.656842 22.937137 3.003209 -0.699553 -10.733493 4.399027 3.208782 7.071156 0.000000 0.000000 0.000000 -3.537266 1.706832 -17.837245 0.000000 0.000000 0.000000 0.568184 -1.629683 -0.724114 -2.210224 -0.606917 -7.819649 8.616147 1.918513 -14.627349 0.000000 0.000000 0.000000 -0.624231 7.187794 -3.620274 -6.067701 0.525068 -9.437218 0.458743 2.621853 -7.919379 
0.027221 0.887947 -0.078205 -12.102930 1.825385 3.857070 0.000000 0.000000 0.000000 7.012753 -7.321651 -37.316781 -2.782099 -0.227467 55.435501 11.475207 11.803103 -15.353431 0.000000 0.000000 0.000000 8.059154 5.940221 -26.552067 2.565773 0.653276 32.905290 -3.397387 6.595841 -11.575357 0.000000 0.000000 0.000000 -4.069730 -1.027179 28.351154 3.415796 -0.739557 -11.494025 5.533357 3.900914 7.536012 0.000000 0.000000 0.000000 -3.535470 1.712454 -18.796431 0.000000 0.000000 0.000000 -0.311598 -2.930597 -1.556973 -1.640187 -0.574938 -7.305145 14.237434 4.884951 -18.958979 0.000000 0.000000 0.000000 -2.291082 11.438203 -5.816740 -9.901064 0.172355 -11.052024 -0.191886 1.897403 -6.854218 
0.040762 0.854053 -0.080171 -14.192955 1.803510 1.711584 0.000000 0.000000 0.000000 7.853255 -7.998453 -41.792978 -4.095200 0.424424 67.486310 12.697471 14.152556 -16.802196 0.000000 0.000000 0.000000 9.313048 6.842899 -29.131185 3.005196 0.608831 41.905206 -5.166346 4.053405 -14.484483 0.000000 0.000000 0.000000 -3.983072 -1.439847 32.166632 3.638897 -0.755946 -11.708686 6.182928 4.680442 7.818800 0.000000 0.000000 0.000000 -2.790294 1.496916 -18.281463 0.000000 0.000000 0.000000 -0.199605 -3.146941 -1.652190 2.054192 -0.564228 -5.418504 17.979281 7.084752 -24.585116 0.000000 0.000000 0.000000 -4.607020 15.081608 -7.889146 -14.052051 -0.339119 -12.897210 -2.272652 -0.529621 -2.402018 
0.065781 0.832219 -0.076346 -14.862251 1.790341 -0.430340 0.000000 0.000000 0.000000 6.199521 -8.793882 -42.870814 -5.968674 1.846370 73.858463 13.996174 18.333442 -17.427370 0.000000 0.000000 0.000000 9.280559 6.788244 -28.893148 1.488168 1.614806 46.782733 -6.016849 3.257346 -16.166331 0.000000 0.000000 0.000000 -3.178495 -2.031089 33.354426 3.569182 -0.754127 -11.714507 6.428943 5.529075 7.823780 0.000000 0.000000 0.000000 -1.829257 1.201920 -16.525817 0.000000 0.000000 0.000000 2.449457 -1.837651 -0.449134 7.138150 -0.696917 -0.955068 17.931818 6.801404 -34.441605 0.000000 0.000000 0.000000 -8.530339 17.141822 -9.281161 -17.722499 -0.895146 -13.920682 -5.249759 -3.404513 3.363068 
0.109891 0.837481 -0.068519 -13.959111 1.878838 -1.306216 0.000000 0.000000 0.000000 1.917458 -9.401599 -39.772880 -7.990012 3.339218 70.218363 14.884362 22.083738 -17.079822 0.000000 0.000000 0.000000 6.464858 5.460007 -25.624543 -1.880036 3.483597 43.625367 -4.484580 5.578277 -13.614208 0.000000 0.000000 0.000000 -1.043996 -3.011198 31.676633 3.214654 -0.746263 -12.218444 6.624364 6.550637 7.693637 0.000000 0.000000 0.000000 -1.530095 1.102129 -13.443079 0.000000 0.000000 0.000000 6.444494 0.973864 2.068755 11.273485 -1.132122 4.947902 15.636967 4.001451 -48.056707 0.000000 0.000000 0.000000 -14.165253 17.525277 -9.865859 -20.993104 -1.281984 -12.020743 -7.352898 -5.003407 6.572193 
0.176858 0.878031 -0.057764 -11.566466 1.515946 -0.872209 0.000000 0.000000 0.000000 -4.070619 -8.730586 -31.913025 -8.763626 3.317608 55.238211 12.613894 18.360090 -13.828278 0.000000 0.000000 0.000000 0.827183 3.435725 -19.776687 -5.758558 4.487952 31.872463 0.896137 8.873700 -3.492683 0.000000 0.000000 0.000000 2.178012 -4.016390 27.505077 2.619188 -0.729728 -13.017834 6.979634 7.841328 7.652623 0.000000 0.000000 0.000000 -2.524629 1.473737 -8.810217 0.000000 0.000000 0.000000 10.334587 5.324808 5.848460 12.507537 -1.426030 9.477515 12.949993 -0.625454 -61.168139 0.000000 0.000000 0.000000 -20.240098 16.709047 -9.695709 -23.392863 -1.269013 -7.562827 -7.666369 -4.889789 5.276426 
0.258294 0.946661 -0.047021 -8.332706 0.206090 0.264246 0.000000 0.000000 0.000000 -9.408147 -6.175097 -21.085518 -7.698905 2.019006 33.032828 4.018243 8.007960 -2.485580 0.000000 0.000000 0.000000 -4.949598 2.122695 -14.903824 -7.759350 3.843738 19.607771 7.982501 7.668160 11.413073 0.000000 0.000000 0.000000 5.373578 -4.369907 21.275278 1.776940 -0.653359 -12.451933 7.152634 9.069656 7.530758 0.000000 0.000000 0.000000 -4.200524 2.189049 -4.028898 0.000000 0.000000 0.000000 13.533967 10.270240 10.130490 11.051636 -1.214233 12.397979 10.220931 -6.042294 -68.727324 0.000000 0.000000 0.000000 -24.632963 15.465730 -8.949843 -24.653407 -1.076653 -3.633089 -6.795351 -3.741376 1.524850 
0.335517 1.022933 -0.042360 -5.695950 -1.234033 1.296448 0.000000 0.000000 0.000000 -10.799342 -3.565510 -13.053757 -6.258056 1.025007 16.149928 -6.507124 3.513999 13.319222 0.000000 0.000000 0.000000 -6.827240 1.818022 -13.277256 -7.850853 3.351010 15.503961 10.907990 2.998828 20.463685 0.000000 0.000000 0.000000 7.747922 -4.212407 15.235224 0.409774 -0.471515 -10.172575 6.661015 9.441105 6.500813 0.000000 0.000000 0.000000 -5.242053 2.685146 -0.431991 0.000000 0.000000 0.000000 14.690844 13.207942 12.426527 8.054805 -0.537597 15.837082 7.855399 -9.259616 -67.293147 0.000000 0.000000 0.000000 -26.017136 14.609803 -8.140296 -24.519015 -0.921437 -1.570154 -5.666876 -2.545658 -1.398545 
0.396048 1.081894 -0.045725 -3.550781 -1.185363 1.602425 0.000000 0.000000 0.000000 -7.731451 -2.749177 -10.804678 -5.569313 0.801823 13.530586 -9.578871 4.607032 19.170040 0.000000 0.000000 0.000000 -4.456139 1.899537 -12.821574 -7.019680 3.427649 17.912181 10.464200 1.639832 20.785381 0.000000 0.000000 0.000000 7.193894 -3.505591 12.223283 -0.809364 -0.285072 -8.183777 5.332132 8.211956 4.850321 0.000000 0.000000 0.000000 -4.869007 2.492706 0.748691 0.000000 0.000000 0.000000 13.292813 11.924961 10.911562 4.343165 0.473155 18.141385 6.544436 -7.612295 -55.557967 0.000000 0.000000 0.000000 -24.601623 13.198186 -6.694388 -22.113790 -0.806097 -1.297031 -5.382258 -1.865354 -3.693630 
